<svg id="Layer_1" enable-background="new 0 0 256 256" height="512" viewBox="0 0 256 256" width="512" xmlns="http://www.w3.org/2000/svg"><circle cx="104.724" cy="114.788" fill="#a4c9ff" r="97.724"/><path d="m119.527 69.088-4.452 5.059c-.665.755-1.031 1.727-1.031 2.733v10.426c0 .554.111 1.102.327 1.612l1.315 3.108c.93 2.199 3.524 3.156 5.66 2.088l6.561-3.28c1.982-.991 2.831-3.367 1.926-5.39l-3.129-6.995c-.291-.651-.409-1.366-.343-2.076l.391-4.166c.228-2.427-1.682-4.523-4.119-4.523-1.189 0-2.321.511-3.106 1.404z" fill="#6bdddd"/><path d="m171.803 46.024-15.822 3.709c-.662.155-1.264.501-1.73.996l-4.124 4.367c-.233.247-.429.527-.581.831l-2.334 4.667c-.32.639-.829 1.164-1.458 1.503l-.006.003c-1.664.896-2.305 2.96-1.44 4.641l2.155 4.191c.95 1.847 3.299 2.451 5.022 1.292l4.278-2.879c1.42-.956 3.325-.733 4.486.525l2.396 2.595c1.057 1.145 1.221 2.854.401 4.179l-5.535 8.941c-.632 1.022-1.748 1.643-2.95 1.643h-11.097c-1.363 0-2.601.799-3.162 2.041l-3.046 6.745c-.203.449-.307.935-.307 1.428v2.265c0 .816.288 1.606.813 2.231l9.469 11.275c.816.971 2.096 1.42 3.34 1.17l14.182-2.848c.592-.119 1.142-.39 1.597-.786l6.917-6.03c.296-.258.633-.463.997-.608l4.381-1.743c1.212-.482 2.593-.244 3.573.617l7.301 6.416c.75.659 1.179 1.608 1.179 2.606v7.013c0 1.294-.72 2.481-1.869 3.078l-12.893 6.704c-.336.175-.699.293-1.073.351l-19.022 2.927c-.175.027-.351.04-.528.04h-8.983c-1.265 0-2.43.689-3.04 1.797l-2.371 4.31-3.648 7.016c-.212.408-.504.77-.857 1.065l-3.286 2.738c-1.025.854-1.471 2.214-1.144 3.508.566 2.24 1.408 5.539 1.607 6.134.215.645 1.639 4.011 2.465 5.95.376.884 1.1 1.566 2.003 1.894l6.875 2.5c1.114.405 1.944 1.351 2.201 2.508l.675 3.035c.089.4.106.812.051 1.217l-1.403 10.379c-.028.204-.037.411-.028.617l.468 10.637c.114 2.594 2.918 4.121 5.188 2.861 30.035-16.673 50.362-48.712 50.362-85.499 0-26.339-10.422-50.241-27.365-67.815-.845-.874-2.097-1.225-3.28-.948z" fill="#6bdddd"/><path d="m83.014 210.088-1.906-5.72-4.072-5.244-5.336-5.722c-.787-.844-1.225-1.956-1.225-3.11v-5.17c0-2.09-1.421-3.913-3.448-4.423l-4.101-1.031c-.364-.091-.737-.138-1.112-.138h-6.504c-1.21 0-2.369-.48-3.225-1.336l-3.779-3.779c-.647-.647-1.084-1.473-1.255-2.371l-1.044-5.48c-.208-1.091-.806-2.068-1.683-2.749l-2.163-1.679c-1.734-1.346-4.181-1.266-5.823.191l-.004.003c-1.656 1.47-4.129 1.537-5.863.16l-3.13-2.486c-.523-.415-.948-.94-1.246-1.538l-3.253-6.53c-.73-1.466-.618-3.211.293-4.571l2.974-4.441c.549-.819 1.348-1.438 2.278-1.765l3.789-1.331c1.093-.384 1.998-1.169 2.533-2.195l4.053-7.779 4.31-6.608c.632-.969.872-2.142.672-3.281l-.91-5.177-1.038-8.354c-.146-1.171.169-2.354.877-3.298l2.91-3.882c1.234-1.647 3.419-2.262 5.332-1.503l2.103.835c.536.213 1.106.322 1.683.322h8.495c1.525 0 2.949-.762 3.795-2.031l5.21-7.814c.499-.749.766-1.629.766-2.53v-9.495c0-1.125-.416-2.21-1.168-3.047l-7.135-7.944c-.462-.514-1.034-.917-1.674-1.177l-7.343-2.987c-3.068-1.248-5.075-4.231-5.075-7.543v-4.908c0-1.41-.653-2.741-1.767-3.605l-4.249-3.292c-1.751-1.357-4.234-1.269-5.867.228-19.477 17.864-31.689 43.517-31.689 72.025 0 46.51 32.492 85.427 76.014 95.3z" fill="#6bdddd"/><path d="m42.832 142.224 11.772 2.475c.814.171 1.547.613 2.079 1.253l2.7 3.25c.614.739 1.492 1.209 2.447 1.311l7.447.792c.777.083 1.508.41 2.087.935l4.866 4.411c.771.699 1.211 1.692 1.211 2.733v.002c0 2.249-1.995 3.974-4.22 3.651l-12.076-1.756c-.66-.096-1.282-.369-1.799-.791l-6.33-5.157c-.536-.436-.938-1.014-1.161-1.668l-.842-2.465c-.51-1.493-1.913-2.497-3.491-2.497h-3.038c-2.037 0-3.689-1.652-3.689-3.689v-2.791h2.037z" fill="#6bdddd"/><g fill="#3762cc"><path d="m104.724 214.512c-54.988 0-99.724-44.736-99.724-99.724s44.736-99.724 99.724-99.724 99.724 44.735 99.724 99.724-44.737 99.724-99.724 99.724zm0-195.448c-52.783 0-95.724 42.942-95.724 95.724s42.941 95.724 95.724 95.724 95.724-42.941 95.724-95.724-42.942-95.724-95.724-95.724z"/><path d="m104.724 214.512c-54.988 0-99.724-44.736-99.724-99.724s44.736-99.724 99.724-99.724 99.724 44.735 99.724 99.724-44.737 99.724-99.724 99.724zm0-195.448c-52.783 0-95.724 42.942-95.724 95.724s42.941 95.724 95.724 95.724 95.724-42.941 95.724-95.724-42.942-95.724-95.724-95.724z"/><path d="m119.493 96.549c-.718 0-1.437-.125-2.121-.378-1.584-.584-2.87-1.811-3.528-3.366l-1.314-3.107c-.322-.763-.485-1.566-.485-2.392v-10.426c0-1.494.543-2.935 1.53-4.055l4.451-5.059c1.166-1.324 2.845-2.083 4.607-2.083 1.723 0 3.377.73 4.537 2.005 1.161 1.274 1.734 2.989 1.573 4.705l-.391 4.166c-.034.366.027.737.178 1.074l3.129 6.993c1.346 3.008.091 6.52-2.857 7.995l-6.562 3.28c-.858.43-1.802.648-2.747.648zm1.535-26.14-4.452 5.059c-.344.391-.533.892-.533 1.412v10.426c0 .287.057.567.169.834l1.314 3.106c.232.55.669.966 1.229 1.172.56.207 1.161.173 1.695-.094l6.561-3.28c1.026-.514 1.464-1.736.995-2.784l-3.129-6.994c-.431-.964-.606-2.028-.508-3.079l.391-4.166c.057-.606-.138-1.188-.548-1.639-.822-.904-2.375-.891-3.184.027z"/><path d="m150.366 202.738c-.923 0-1.845-.234-2.684-.704-1.659-.928-2.699-2.617-2.783-4.52l-.468-10.638c-.015-.324 0-.652.044-.976l1.402-10.376c.023-.173.016-.346-.021-.515l-.675-3.037c-.109-.492-.458-.89-.933-1.062l-6.875-2.5c-1.418-.516-2.57-1.605-3.159-2.989-1.492-3.502-2.34-5.556-2.522-6.103-.171-.515-.726-2.626-1.648-6.275-.511-2.022.196-4.195 1.802-5.534l3.287-2.738c.15-.126.272-.277.363-.451l3.648-7.017 2.393-4.351c.961-1.748 2.797-2.834 4.792-2.834h8.982c.077 0 .153-.006.229-.018l19.017-2.926c.16-.024.312-.074.454-.148l12.894-6.705c.488-.254.792-.753.792-1.303v-7.013c0-.423-.182-.825-.5-1.104l-7.301-6.416c-.417-.366-.996-.467-1.513-.261l-4.38 1.743c-.155.062-.296.147-.421.257l-6.918 6.03c-.716.625-1.588 1.054-2.519 1.239l-14.18 2.849c-1.962.392-3.98-.314-5.266-1.846l-9.469-11.274c-.826-.983-1.281-2.232-1.281-3.518v-2.265c0-.781.163-1.538.484-2.25l3.047-6.746c.883-1.955 2.839-3.218 4.984-3.218h11.097c.512 0 .979-.261 1.249-.696l5.535-8.94c.346-.559.276-1.287-.17-1.771l-2.395-2.595c-.496-.536-1.294-.631-1.9-.223l-4.278 2.879c-1.295.872-2.904 1.147-4.416.76-1.512-.389-2.788-1.407-3.502-2.795l-2.155-4.191c-1.353-2.633-.334-5.915 2.271-7.317.274-.147.487-.367.623-.639l2.334-4.668c.242-.482.55-.922.916-1.31l4.124-4.366c.738-.782 1.682-1.324 2.728-1.57l15.823-3.709.457 1.947-.457-1.947c1.873-.438 3.855.14 5.175 1.508 18.008 18.679 27.926 43.255 27.926 69.203 0 36.22-19.692 69.65-51.391 87.248-.845.471-1.769.705-2.692.705zm-4.037-68.618c-.536 0-1.029.292-1.288.762l-2.371 4.31-3.626 6.976c-.338.649-.793 1.214-1.353 1.68l-3.285 2.736c-.438.365-.624.933-.485 1.481.998 3.949 1.462 5.685 1.565 5.991.108.325.797 2.019 2.407 5.799.16.374.46.657.846.798l6.876 2.5c1.765.643 3.063 2.12 3.47 3.953l.675 3.037c.141.633.167 1.278.081 1.92l-1.402 10.377c-.012.088-.016.174-.012.26l.468 10.64c.032.731.528 1.086.74 1.204.22.124.805.369 1.48-.004 30.429-16.893 49.333-48.983 49.333-83.751 0-24.907-9.52-48.498-26.805-66.427-.346-.358-.877-.51-1.383-.39l-15.822 3.709c-.281.065-.535.212-.733.422l-4.124 4.366c-.099.104-.182.224-.248.354l-2.333 4.665c-.505 1.012-1.301 1.832-2.299 2.369-.706.38-.979 1.262-.616 1.97l2.155 4.19c.263.511.702.689.941.751.238.063.711.116 1.186-.204l4.278-2.879c2.254-1.517 5.229-1.169 7.073.828l2.396 2.595c1.66 1.799 1.919 4.509.631 6.589l-5.535 8.94c-1.004 1.622-2.743 2.591-4.65 2.591h-11.097c-.576 0-1.102.339-1.339.864l-3.046 6.745c-.086.19-.13.395-.13.604v2.265c0 .346.122.681.344.945l9.469 11.274c.345.411.886.604 1.415.496l14.181-2.849c.251-.05.484-.165.676-.332l6.917-6.03c.467-.407.997-.73 1.573-.96l4.379-1.742c1.92-.765 4.079-.393 5.632.974l7.301 6.416c1.182 1.039 1.859 2.536 1.859 4.108v7.013c0 2.049-1.129 3.907-2.947 4.852l-12.892 6.705c-.53.275-1.099.462-1.691.553l-19.022 2.927c-.279.042-.555.063-.832.063h-8.981z"/><path d="m83.014 212.088c-.147 0-.295-.017-.442-.05-21.689-4.92-41.378-17.209-55.44-34.604-14.273-17.653-22.132-39.901-22.132-62.646 0-27.859 11.785-54.648 32.333-73.498 2.354-2.161 5.905-2.302 8.444-.336l4.249 3.292c1.592 1.232 2.542 3.171 2.542 5.187v4.907c0 2.512 1.503 4.745 3.829 5.691l7.343 2.987c.914.371 1.748.957 2.409 1.693l7.135 7.944c1.083 1.206 1.68 2.763 1.68 4.383v9.495c0 1.3-.381 2.558-1.102 3.639l-5.209 7.814c-1.219 1.829-3.26 2.921-5.458 2.921h-8.496c-.831 0-1.644-.155-2.418-.462l-2.105-.836c-1.071-.424-2.302-.077-2.994.844l-2.91 3.882c-.4.533-.575 1.19-.492 1.852l1.032 8.304.901 5.129c.289 1.645-.054 3.32-.966 4.719l-4.257 6.526-4.008 7.691c-.772 1.483-2.067 2.605-3.645 3.159l-3.789 1.33c-.519.183-.973.535-1.279.991l-2.975 4.441c-.51.762-.573 1.745-.164 2.566l3.253 6.53c.167.334.408.633.699.863l3.13 2.485c.976.776 2.361.736 3.292-.09.012-.01.023-.021.035-.03 2.361-2.068 5.864-2.175 8.346-.248l2.164 1.68c1.263.98 2.123 2.385 2.421 3.955l1.044 5.479c.096.506.34.966.704 1.33l3.78 3.78c.484.483 1.126.75 1.811.75h6.504c.541 0 1.08.066 1.602.198l4.1 1.031c2.921.734 4.961 3.351 4.961 6.362v5.17c0 .65.244 1.271.688 1.746l5.336 5.723c.041.044.08.09.117.138l4.072 5.243c.139.179.246.38.318.594l1.907 5.72c.228.686.07 1.44-.415 1.976-.387.426-.927.66-1.485.66zm-41.267-168.516c-.617 0-1.229.224-1.71.665-19.724 18.094-31.037 43.809-31.037 70.551 0 43.814 29.002 81.348 70.969 92.491l-.651-1.954-3.807-4.902-5.274-5.656c-1.136-1.219-1.762-2.809-1.762-4.475v-5.17c0-1.176-.796-2.196-1.937-2.483l-4.101-1.031c-.204-.051-.414-.077-.625-.077h-6.504c-1.753 0-3.4-.683-4.639-1.922l-3.779-3.779c-.935-.934-1.559-2.113-1.806-3.411l-1.044-5.479c-.116-.613-.452-1.161-.944-1.543l-2.164-1.68c-.973-.755-2.348-.709-3.269.107-.012.01-.023.021-.035.03-2.387 2.091-5.915 2.18-8.403.203l-3.13-2.485c-.746-.592-1.366-1.357-1.792-2.212l-3.253-6.531c-1.048-2.104-.886-4.623.421-6.576l2.975-4.441c.784-1.169 1.947-2.07 3.276-2.538l3.79-1.33c.616-.217 1.121-.654 1.422-1.233l4.054-7.778c.03-.058.063-.114.098-.169l4.31-6.608c.356-.545.49-1.199.377-1.841l-.91-5.179c-.006-.032-.011-.065-.015-.099l-1.039-8.354c-.21-1.695.238-3.38 1.262-4.745l2.91-3.881c1.771-2.364 4.926-3.253 7.67-2.162l2.103.835c.302.119.62.18.945.18h8.496c.858 0 1.655-.426 2.13-1.14l5.209-7.814c.281-.422.43-.913.43-1.42v-9.495c0-.632-.233-1.24-.656-1.711l-7.135-7.944c-.258-.287-.583-.515-.938-.659l-7.345-2.988c-3.84-1.562-6.321-5.25-6.321-9.396v-4.907c0-.798-.361-1.536-.992-2.024l-4.25-3.292c-.469-.367-1.027-.548-1.58-.548z"/><path d="m73.754 165.075c-.272 0-.546-.02-.819-.059l-12.077-1.756c-1.018-.147-1.979-.57-2.776-1.221l-6.329-5.155c-.827-.674-1.446-1.563-1.791-2.572l-.842-2.465c-.233-.685-.875-1.144-1.598-1.144h-3.038c-3.137 0-5.689-2.553-5.689-5.689v-2.791c0-1.104.896-2 2-2h2.036c.138 0 .276.015.412.043l11.772 2.475c1.25.263 2.39.949 3.206 1.933l2.7 3.249c.282.341.68.554 1.12.6l7.448.794c1.204.127 2.317.625 3.218 1.44l4.867 4.412c1.187 1.075 1.868 2.612 1.868 4.215 0 1.654-.717 3.223-1.967 4.305-1.041.901-2.363 1.386-3.721 1.386zm-30.958-20.815v.755c0 .932.758 1.689 1.689 1.689h3.038c2.434 0 4.598 1.548 5.384 3.852l.841 2.464c.103.3.286.563.532.764l6.33 5.156c.237.193.521.318.823.362l12.077 1.756c.66.096 1.129-.206 1.348-.394.218-.189.584-.606.584-1.278 0-.478-.202-.934-.555-1.254l-4.866-4.411c-.263-.238-.602-.39-.954-.427l-7.449-.794c-1.482-.157-2.822-.875-3.774-2.021l-2.7-3.249c-.242-.293-.58-.496-.951-.574z"/></g><path d="m188.918 181.79v-76.047c0-7.593-6.155-13.748-13.748-13.748s-13.748 6.155-13.748 13.748v76.047c-9.78 5.006-16.479 15.176-16.479 26.917 0 16.694 13.533 30.228 30.227 30.228s30.227-13.533 30.227-30.228c0-11.741-6.699-21.911-16.479-26.917z" fill="#e0ebfc"/><path d="m183.548 190.058c-.445-.201-.741-.633-.741-1.122v-6.192-76.747c0-4.205-3.29-7.813-7.495-7.89-4.284-.078-7.781 3.371-7.781 7.637v77 6.194c0 .488-.295.919-.739 1.12-7.631 3.441-12.79 11.427-11.993 20.491.872 9.911 8.954 17.849 18.878 18.557 11.948.852 21.942-8.628 21.942-20.398.002-8.292-4.961-15.443-12.071-18.65z" fill="#f9cfcf"/><circle cx="175.17" cy="208.708" fill="#a4c9ff" r="20.451"/><path d="m175.169 240.936c-17.771 0-32.228-14.457-32.228-32.228 0-11.743 6.283-22.404 16.479-28.115v-74.85c0-8.684 7.064-15.748 15.748-15.748s15.748 7.064 15.748 15.748v74.85c10.197 5.711 16.479 16.372 16.479 28.115.002 17.771-14.455 32.228-32.226 32.228zm0-146.941c-6.478 0-11.748 5.271-11.748 11.748v76.047c0 .751-.42 1.438-1.089 1.78-9.493 4.859-15.391 14.491-15.391 25.138 0 15.564 12.663 28.228 28.228 28.228s28.228-12.663 28.228-28.228c0-10.646-5.897-20.278-15.391-25.138-.668-.342-1.089-1.029-1.089-1.78v-76.047c0-6.477-5.27-11.748-11.748-11.748z" fill="#3762cc"/><path d="m183.548 190.058c-.445-.201-.741-.633-.741-1.122v-6.192-40.963h-15.276v40.963 6.194c0 .488-.295.919-.739 1.12-7.631 3.441-12.79 11.427-11.993 20.491.872 9.911 8.954 17.849 18.878 18.557 11.948.852 21.942-8.628 21.942-20.398.002-8.292-4.961-15.443-12.071-18.65z" fill="#f9a7a7"/><path d="m191.2 116.948h-12.364c-2.025 0-3.666-1.641-3.666-3.666 0-2.025 1.641-3.666 3.666-3.666h12.364c2.025 0 3.666 1.641 3.666 3.666 0 2.024-1.642 3.666-3.666 3.666z" fill="#ffea92"/><path d="m191.2 135.279h-12.364c-2.025 0-3.666-1.641-3.666-3.666 0-2.025 1.641-3.666 3.666-3.666h12.364c2.025 0 3.666 1.641 3.666 3.666 0 2.024-1.642 3.666-3.666 3.666z" fill="#ffea92"/><path d="m191.2 154.832h-12.364c-2.025 0-3.666-1.641-3.666-3.666 0-2.025 1.641-3.666 3.666-3.666h12.364c2.025 0 3.666 1.641 3.666 3.666 0 2.024-1.642 3.666-3.666 3.666z" fill="#ffea92"/><path d="m191.2 174.384h-12.364c-2.025 0-3.666-1.641-3.666-3.666 0-2.025 1.641-3.666 3.666-3.666h12.364c2.025 0 3.666 1.641 3.666 3.666 0 2.025-1.642 3.666-3.666 3.666z" fill="#ffea92"/><path d="m241.794 184.57v-17.253-3.703-20.009-17.459c0-.511.415-.926.926-.926h5.353c.758 0 1.195-.862.747-1.473l-16.943-23.105c-.37-.504-1.123-.504-1.493 0l-16.943 23.105c-.448.612-.012 1.473.747 1.473h5.353c.511 0 .926.414.926.926v17.459 20.009 3.703 17.253 20.215c0 .511-.415.926-.926.926h-5.353c-.758 0-1.195.862-.747 1.473l16.943 23.104c.37.504 1.123.504 1.493 0l16.943-23.104c.448-.612.012-1.473-.747-1.473h-5.353c-.511 0-.926-.415-.926-.926z" fill="#f9a7a7"/><path d="m233.38 114.005v-3.5c0-.511-.414-.926-.926-.926h-2.74c-.511 0-.926.414-.926.926v3.5c0 .511-.415.926-.926.926h-3.37c-.511 0-.926.414-.926.926v2.482c0 .511.414.926.926.926h3.37c.511 0 .926.414.926.926v3.5c0 .511.414.926.926.926h2.74c.511 0 .926-.414.926-.926v-3.5c0-.511.415-.926.926-.926h3.371c.511 0 .926-.414.926-.926v-2.482c0-.511-.415-.926-.926-.926h-3.371c-.511 0-.926-.415-.926-.926z" fill="#4671c6"/><path d="m223.566 212.111v2.482c0 .511.414.926.926.926h13.185c.511 0 .926-.415.926-.926v-2.482c0-.511-.415-.926-.926-.926h-13.185c-.512 0-.926.414-.926.926z" fill="#f9cfcf"/></svg>
